<?xml version="1.0" encoding="utf-8"?>
<!-- Generator: Adobe Illustrator 24.1.0, SVG Export Plug-In . SVG Version: 6.00 Build 0)  -->
<svg version="1.1" id="Group_1_copy_12_1_" xmlns="http://www.w3.org/2000/svg" xmlns:xlink="http://www.w3.org/1999/xlink" x="0px"
	 y="0px" viewBox="0 0 177.6 27.7" style="enable-background:new 0 0 177.6 27.7;" xml:space="preserve">
<style type="text/css">
	.st0{fill:#0022FF;}
	.st1{fill:#464747;}
</style>
<g id="Layer_1_copy_xA0_Image_1_">
	<path class="st0" d="M28.5,2.8C28.4,1.9,28.3,1,28.1,0c-1.5,1.9-2.9,3.8-4.3,5.6c1.8,1.4,3.6,2.9,5.5,4.3C29.3,9,29.1,8,29,7
		c0.7-0.1,1.4-0.1,2.1,0.1c3.3,0.6,5.7,3.5,5.8,6.9c0,3.4-2.3,6.3-5.6,7c-4.6,1-8.8-2.6-8.6-7.2c0.2-5.6-4.2-11.2-10.5-11.6
		C6.1,1.9,1,6,0.1,11.8c-1,6.8,4.2,13,11.1,13.1c0.5,0,0.9,0,1.4,0c0.1,0.9,0.2,1.8,0.3,2.8c1.5-2,2.9-3.8,4.3-5.6
		c-1.8-1.4-3.6-2.8-5.5-4.3c0.1,1,0.2,1.9,0.4,2.9c-0.7,0.1-1.4,0.1-2.1-0.1c-3.3-0.6-5.7-3.5-5.8-6.9c0-3.4,2.3-6.3,5.6-7
		c4.5-0.9,8.8,2.6,8.6,7.2c-0.2,5.5,3.9,11.1,10.4,11.6c6,0.5,11.3-3.7,12.2-9.6c1.1-6.8-4.2-13-11.1-13.1C29.4,2.7,29,2.8,28.5,2.8
		z"/>
</g>
<g id="Devop.One">
	<g>
		<path class="st1" d="M48,22.7V5.6h3.8c2.4,0,4.2,0.1,5.2,0.4s1.9,0.7,2.6,1.2c1,0.8,1.7,1.7,2.3,2.9s0.8,2.5,0.8,4.1
			s-0.3,2.9-0.8,4s-1.3,2.1-2.3,2.9c-0.8,0.6-1.6,1-2.6,1.2s-2.4,0.4-4.5,0.4h-0.8H48z M50.8,20.2h2.3c1.3,0,2.3-0.1,2.9-0.3
			s1.2-0.5,1.7-0.9c0.6-0.6,1.1-1.2,1.5-2.1s0.5-1.8,0.5-2.9s-0.2-2.1-0.5-2.9s-0.8-1.5-1.5-2.1c-0.5-0.4-1.1-0.7-1.7-0.9
			s-1.7-0.3-3.2-0.3h-1h-1V20.2z"/>
		<path class="st1" d="M65.7,22.7V5.6h9.6v2.4h-6.8v4.3h6.8v2.4h-6.8v5.5h6.8v2.5H65.7z"/>
		<path class="st1" d="M84,23.4L76.3,5.6h2.9l3.8,9.1c0.2,0.5,0.4,1,0.6,1.5c0.1,0.4,0.3,0.9,0.4,1.3c0.1-0.4,0.2-0.9,0.4-1.3
			c0.2-0.5,0.3-0.9,0.6-1.4l3.8-9.1h2.9L84,23.4z"/>
		<path class="st1" d="M110.5,14.2c0,1.2-0.2,2.4-0.7,3.5s-1.1,2.1-2,2.9c-0.9,0.9-1.9,1.5-3,2s-2.3,0.7-3.5,0.7
			c-1.2,0-2.4-0.2-3.5-0.7s-2.1-1.1-3-2c-0.9-0.9-1.5-1.8-2-2.9s-0.7-2.2-0.7-3.5c0-1.2,0.2-2.4,0.7-3.5s1.1-2.1,2-2.9
			c0.9-0.9,1.9-1.5,3-1.9s2.3-0.7,3.5-0.7c1.2,0,2.4,0.2,3.5,0.7s2.1,1.1,3,1.9c0.9,0.9,1.5,1.8,2,2.9S110.5,13,110.5,14.2z
			 M107.6,14.2c0-0.9-0.2-1.7-0.5-2.5s-0.8-1.5-1.4-2.1c-0.6-0.6-1.2-1.1-2-1.4s-1.6-0.5-2.4-0.5s-1.6,0.2-2.4,0.5s-1.4,0.8-2,1.4
			c-0.6,0.6-1,1.3-1.4,2.1s-0.5,1.6-0.5,2.5c0,0.9,0.2,1.7,0.5,2.5c0.3,0.8,0.8,1.5,1.4,2.1s1.3,1.1,2,1.4s1.6,0.5,2.4,0.5
			c0.8,0,1.6-0.2,2.4-0.5s1.4-0.8,2-1.4c0.6-0.6,1-1.3,1.4-2.1C107.5,15.9,107.6,15.1,107.6,14.2z"/>
		<path class="st1" d="M116.3,15v7.7h-2.6V5.6h4.2c1.3,0,2.2,0.1,2.8,0.2s1.1,0.4,1.5,0.7c0.5,0.4,1,0.9,1.3,1.6s0.5,1.4,0.5,2.2
			s-0.2,1.6-0.5,2.3s-0.7,1.2-1.3,1.6c-0.4,0.3-1,0.5-1.5,0.7s-1.5,0.2-2.8,0.2h-0.6H116.3z M116.5,12.8h0.7c1.5,0,2.6-0.2,3.1-0.5
			c0.5-0.3,0.8-0.9,0.8-1.8c0-0.9-0.3-1.6-0.8-1.9s-1.6-0.6-3-0.6h-0.7V12.8z"/>
		<path class="st1" d="M120.9,21.4c0-0.4,0.1-0.8,0.4-1.1c0.3-0.3,0.7-0.5,1.1-0.5s0.8,0.2,1.1,0.5s0.4,0.7,0.4,1.1
			c0,0.4-0.1,0.8-0.4,1.1s-0.7,0.4-1.1,0.4s-0.8-0.1-1.1-0.4C121,22.2,120.9,21.9,120.9,21.4z"/>
		<path class="st1" d="M145.6,14.2c0,1.2-0.2,2.4-0.7,3.5s-1.1,2.1-2,2.9c-0.9,0.9-1.9,1.5-3,2s-2.3,0.7-3.5,0.7
			c-1.2,0-2.4-0.2-3.5-0.7s-2.1-1.1-3-2c-0.9-0.9-1.5-1.8-2-2.9s-0.7-2.2-0.7-3.5c0-1.2,0.2-2.4,0.7-3.5s1.1-2.1,2-2.9
			c0.9-0.9,1.9-1.5,3-1.9s2.3-0.7,3.5-0.7c1.2,0,2.4,0.2,3.5,0.7s2.1,1.1,3,1.9c0.9,0.9,1.5,1.8,2,2.9S145.6,13,145.6,14.2z
			 M142.7,14.2c0-0.9-0.2-1.7-0.5-2.5s-0.8-1.5-1.4-2.1c-0.6-0.6-1.2-1.1-2-1.4s-1.6-0.5-2.4-0.5s-1.6,0.2-2.4,0.5s-1.4,0.8-2,1.4
			c-0.6,0.6-1,1.3-1.4,2.1s-0.5,1.6-0.5,2.5c0,0.9,0.2,1.7,0.5,2.5c0.3,0.8,0.8,1.5,1.4,2.1s1.3,1.1,2,1.4s1.6,0.5,2.4,0.5
			c0.8,0,1.6-0.2,2.4-0.5s1.4-0.8,2-1.4c0.6-0.6,1-1.3,1.4-2.1C142.5,15.9,142.7,15.1,142.7,14.2z"/>
		<path class="st1" d="M148.8,22.7V4.9l10.9,10.5c0.3,0.3,0.6,0.6,0.9,0.9s0.6,0.7,1,1.1V5.6h2.6v17.8L153,12.7
			c-0.3-0.3-0.6-0.6-0.9-0.9s-0.5-0.7-0.8-1v11.9H148.8z"/>
		<path class="st1" d="M168,22.7V5.6h9.6v2.4h-6.8v4.3h6.8v2.4h-6.8v5.5h6.8v2.5H168z"/>
	</g>
</g>
</svg>
