<?xml version="1.0" encoding="UTF-8" standalone="no"?>
<svg width="550" height="129" viewBox="0 0 550 129" fill="none" xmlns="http://www.w3.org/2000/svg">
<path fill-rule="evenodd" clip-rule="evenodd" d="M166.4 37.15C166.4 41.35 162.95 44.6 158.95 44.6C154.75 44.6 151.4 41.35 151.4 37.15C151.4 32.95 154.75 29.6 158.95 29.6C163.15 29.6 166.4 32.95 166.4 37.15ZM242.05 51.7V49.05C242.05 43 242.7 40.3 252.25 42.05V32.7C232.75 29.1 230.05 39.05 230.05 48.55V51.7H222.9V61H230.05V102.9H242.05V61H252.25V51.7H242.05ZM185.45 51.7H173.55V102.95H185.75V79.55C185.75 66.85 190.7 60.8 197.65 60.8C204.9 60.8 207.25 66.25 207.25 73.95V102.85H219.25V71.15C219.25 59 214.1 50.25 200.8 50.25C192.95 50.25 186.9 54.45 185.8 67.6H185.45V51.7ZM152.45 51.7H164.65V102.9H152.45V51.7ZM279.55 50.35C264.5 50.35 252.9 61.05 252.9 77.3C252.9 93.65 264.5 104.45 279.55 104.45C294.6 104.45 306.1 93.65 306.1 77.3C306.1 61.05 294.6 50.35 279.55 50.35ZM279.55 59.95C288.45 59.95 294.3 67.8 294.3 77.3C294.3 86.8 288.45 94.65 279.55 94.65C270.65 94.65 264.8 86.8 264.8 77.3C264.75 67.75 270.6 59.95 279.55 59.95ZM338.75 51.1V62.6C338.15 62.6 334.85 62.8 333.1 63.2C328.35 64.2 323.6 66.75 323.6 79.65V102.95H311.4V51.7H323.3V67.65H323.75C325.05 53.4 331.65 51.25 338.75 51.1ZM355.45 51.7H343.6V102.95H355.8V79.55C355.8 69.45 357.9 60.8 365.9 60.8C373.05 60.8 374.4 66.25 374.4 73.95V102.85H386.2V78.3C386.2 67.1 390.25 60.75 396.3 60.75C402.55 60.75 404.8 66.2 404.8 73.9V102.8H416.8V71.1C416.8 58.95 410.75 50.2 397.9 50.2C390.55 50.2 383.65 54.35 383.55 67.55H383.1C383.9 54.4 376.15 50.2 369.2 50.2C362.15 50.2 356.35 54.25 355.95 67.55H355.5V51.7H355.45ZM472.35 80.65H433.05C434.05 89.25 439.7 94.6 447.4 94.6C453.05 94.6 457.8 92.5 459.6 87.75H471.7C468.65 98.05 459.8 104.4 447.55 104.4C432.1 104.4 421.5 93.4 421.5 77.15C421.5 61.5 432.5 50.2 447.55 50.2C464.9 50.2 472.4 63.5 472.5 78.35C472.45 78.85 472.45 79.75 472.35 80.65ZM460.7 72.35C459.9 65.4 455.85 59.6 447.4 59.6C439.55 59.6 434.35 64.75 433.15 72.35H460.7ZM529.05 103.3V32.6H516.65V60.9L516.55 65.25H516.1C514.7 55.9 508.95 50.65 499.4 50.65C485.55 50.65 476.5 61.25 476.5 77.5C476.5 93.85 485.6 104.55 499.5 104.55C506.45 104.55 514.7 102.25 516.05 89.1H516.5L516.6 103.3H529.05ZM503.1 60.45C512.7 60.45 517.55 68.75 517.55 77.6C517.55 86.6 512.9 95.05 503.1 95.05C492.6 95.05 488.65 87.45 488.65 77.6C488.65 67.95 492.8 60.45 503.1 60.45ZM549.45 96.85C549.45 101.2 546.1 104.45 542.1 104.45C537.85 104.45 534.5 101.2 534.5 96.85C534.5 92.7 537.85 89.45 542.1 89.45C546.1 89.45 549.45 92.8 549.45 96.85Z" fill="#252525"/>
<path d="M103.9 40.5C99.15 28.35 89.35 17.55 76.4 10.05C49.1 -5.74997 17 -1.49997 4.85 19.5C4.85 19.5 4.85 19.5 4.85 19.55C2.1 24.3 0.850001 29.65 1.05 35.25L1.95 104C2.15 118.3 12.65 124.45 14.3 125.3C14.85 125.6 16.5 126.5 18.85 127.3C18.85 127.3 18.85 127.3 18.9 127.3C20.95 127.95 23.55 128.5 26.5 128.5C30.75 128.5 35.65 127.35 40.6 123.65L88.05 90.3C93.85 86.5 98.65 81.6 102.05 75.7C108.05 65.35 108.7 52.8 103.9 40.5ZM10.55 103.9L9.95 58.25C13.95 63.35 19.05 67.8 25 71.25C32.95 75.85 41.75 78.25 50.2 78.25C52.2 78.25 54.15 78.1 56.1 77.85C58.85 77.45 61.4 76.85 63.85 75.95L56.35 91.1C48.95 91.4 41.2 90.35 33.7 87.8C32.1 87.25 30.35 87.4 28.85 88.15C27.35 88.9 26.25 90.2 25.7 91.8L17.55 117.25C15.65 116 10.65 111.95 10.55 103.9ZM72.45 58.55C69.05 64.4 62.85 68.25 54.95 69.35C50.95 69.9 46.8 69.75 42.65 68.9L54.95 32.45C63.65 34.3 70.4 38.9 73.25 44.9C75.3 49.3 75.05 54 72.45 58.55ZM35.6 116.7L35.5 116.8C32.1 119.35 28.65 120.05 25.8 119.9L33.2 96.75C42.15 99.45 51.25 100.35 59.85 99.65L35.6 116.7ZM94.55 71.45C89.15 80.85 78.8 87.25 66.6 89.85L80.65 61.4C83.95 54.8 84.1 47.65 81 41.15C76.7 32.1 66.7 25.5 54.25 23.5C51.25 23 48.4 24.75 47.4 27.65L34.35 66.3C32.65 65.55 30.95 64.75 29.3 63.8C21.1 59.05 14.85 52.2 11.7 44.4C10.4 41.2 9.7 37.95 9.6 34.9V34.7C9.5 30.8 10.4 27.05 12.3 23.8C22.1 6.95003 48.9 4.10003 72.1 17.5C83.35 24 91.8 33.3 95.85 43.65C99.7 53.45 99.25 63.35 94.55 71.45Z" fill="#252525"/>
</svg>
